-
      the fast  and The Hottest Private Tracker on the net

Please Seed back to make the speed Faster!!
 ............ NFO .............
-[URL=http://img42.imageshack.us/i/mybrotherthedevilposter.jpg/][IMG]http://img42.imageshack.us/img42/528/mybrotherthedevilposter.jpg[/IMG][/URL]


MRFIXIT is proud to present:   My Brother The Devil 
Source:  My Brother The Devil 2012 PAL DVD9-MAJESTIC

[URL=http://img204.imageshack.us/i/27867621.png/][IMG]http://img204.imageshack.us/img204/2294/27867621.png[/IMG][/URL]

Complete name                            : C:My Brother The Devil-Dvdrip-H264-MRFIXIT.avi
Format                                   : AVI
Format/Info                              : Audio Video Interleave
File size                                : 796 MiB
Duration                                 : 1h 47mn
Overall bit rate                         : 1 038 Kbps
Writing library                          : VirtualDub build 32842/release

[URL=http://img713.imageshack.us/i/32031619.png/][IMG]http://img713.imageshack.us/img713/512/32031619.png[/IMG][/URL]

ID                                       : 0
Format                                   : AVC
Format/Info                              : Advanced Video Codec
Format profile                           : High@L3.0
Format settings, CABAC                   : Yes
Format settings, ReFrames                : 3 frames
Codec ID                                 : H264
Duration                                 : 1h 47mn
Bit rate                                 : 900 Kbps
Width                                    : 720 pixels
Height                                   : 304 pixels
Display aspect ratio                     : 2.35:1
Frame rate                               : 25.000 fps
Color space                              : YUV
Chroma subsampling                       : 4:2:0
Bit depth                                : 8 bits
Scan type                                : Progressive
Bits/(Pixel*Frame)                       : 0.164
Stream size                              : 691 MiB (87%)
Writing library                          : x264 core 130 r2273kMod b3065e6
Encoding settings                        : cabac=1 / ref=3 / deblock=1:0:0 / analyse=0x3:0x13 / me=umh / subme=7 / psy=1 / fade_compensate=0.00 / psy_rd=1.00:0.00 / mixed_ref=1 / me_range=16 / chroma_me=1 / trellis=1 / 8x8dct=1 / cqm=0 / deadzone=21,11 / fast_pskip=1 / chroma_qp_offset=-2 / threads=4 / lookahead_threads=4 / sliced_threads=1 / slices=4 / nr=0 / decimate=1 / interlaced=0 / bluray_compat=0 / constrained_intra=0 / bframes=0 / weightp=2 / keyint=250 / keyint_min=25 / scenecut=40 / intra_refresh=0 / rc=2pass / mbtree=0 / bitrate=900 / ratetol=1.0 / qcomp=0.60 / qpmin=10 / qpmax=51 / qpstep=4 / cplxblur=20.0 / qblur=0.5 / ip_ratio=1.40 / aq=1:1.00
  

[URL=http://img684.imageshack.us/i/14258198.png/][IMG]http://img684.imageshack.us/img684/6473/14258198.png[/IMG][/URL]

ID                                       : 1
Format                                   : MPEG Audio
Format version                           : Version 1
Format profile                           : Layer 3
Mode                                     : Joint stereo
Mode extension                           : MS Stereo
Codec ID                                 : 55
Codec ID/Hint                            : MP3
Duration                                 : 1h 47mn
Bit rate mode                            : Constant
Bit rate                                 : 128 Kbps
Channel(s)                               : 2 channels
Sampling rate                            : 48.0 KHz
Compression mode                         : Lossy
Stream size                              : 98.2 MiB (12%)
Alignment                                : Split accross interleaves
Interleave, duration                     : 40 ms (1.00 video frame)
Interleave, preload duration             : 500 ms
Writing library                          : LAME3.99.5

[URL=http://img36.imageshack.us/i/19805875.png/][IMG]http://img36.imageshack.us/img36/52/19805875.png[/IMG][/URL]
 
http://www.imdb.com/title/tt2076897/

[URL=http://img225.imageshack.us/i/39945039.png/][IMG]http://img225.imageshack.us/img225/9529/39945039.png[/IMG][/URL]

Two teenage brothers must face their prejudices head on if they are to survive the perils of being young, British Arabs on the streets of gangland London. 

[URL=http://img405.imageshack.us/i/70975872.png/][IMG]http://img405.imageshack.us/img405/6001/70975872.png[/IMG][/URL]

James Floyd
Fady Elsayed 
Sad Taghmaoui
Aymen Hamdouchi
Ashley Thomas
Anthony Welsh
Arnold Oceng
Letitia Wright
Amira Ghazalla
Elarica Gallacher
Nasser Memarzia
Sylvia Aman
Denzel Assiamah
Simona Brown-Zivkovska
McKell Celaschi-David 

[URL=http://img819.imageshack.us/i/94723758.png/][IMG]http://img819.imageshack.us/img819/9863/94723758.png[/IMG][/URL]

[URL=http://img845.imageshack.us/i/74782253.jpg/][IMG]http://img845.imageshack.us/img845/6547/74782253.jpg[/IMG][/URL]
[URL=http://img12.imageshack.us/i/40915095.jpg/][IMG]http://img12.imageshack.us/img12/8734/40915095.jpg[/IMG][/URL]
[URL=http://img18.imageshack.us/i/94680588.jpg/][IMG]http://img18.imageshack.us/img18/6282/94680588.jpg[/IMG][/URL]
[URL=http://img12.imageshack.us/i/19487049.jpg/][IMG]http://img12.imageshack.us/img12/2481/19487049.jpg[/IMG][/URL]
[URL=http://img560.imageshack.us/i/51993950.jpg/][IMG]http://img560.imageshack.us/img560/9479/51993950.jpg[/IMG][/URL]
[URL=http://img715.imageshack.us/i/21204179.jpg/][IMG]http://img715.imageshack.us/img715/5324/21204179.jpg[/IMG][/URL]

[URL=http://img834.imageshack.us/i/greets3.png/][IMG]http://img834.imageshack.us/img834/3478/greets3.png[/IMG][/URL]

voltage, DQ1, LEGION, PRESTiGE, 26k, RemixHD, UNiQUE, Legend-Rg, DiNGiE, Relentle$$,
Bigguy, paranoid53, HIVE-CM8, TRINITY, Rx, INSPiRAL, HOPE, tommiecook, Wayne, Seedling, Quagmire

Contact [color=red]iammrfixit@hushmail.me[/color]